<svg xmlns="http://www.w3.org/2000/svg" width="610" height="12" version="1.1" viewBox="0 0 610 12"><path fill="#4c4c4c" stroke="none" d="M 4.5,0 A 4.5,6 0 0 0 0,6 4.5,6 0 0 0 4.5,12 l 601,0 A 4.5,6 0 0 0 610,6 4.5,6 0 0 0 605.5,0 L 4.5,0 Z"/><ellipse cx="11" cy="6" fill="#7f7f7f" stroke="none" rx="2.1" ry="2.6"/><ellipse cx="53" cy="6" fill="#7f7f7f" stroke="none" rx="2.1" ry="2.6"/><ellipse cx="95" cy="6" fill="#7f7f7f" stroke="none" rx="2.1" ry="2.6"/><ellipse cx="137" cy="6" fill="#7f7f7f" stroke="none" rx="2.1" ry="2.6"/><ellipse cx="179" cy="6" fill="#7f7f7f" stroke="none" rx="2.1" ry="2.6"/><ellipse cx="221" cy="6" fill="#7f7f7f" stroke="none" rx="2.1" ry="2.6"/><ellipse cx="263" cy="6" fill="#7f7f7f" stroke="none" rx="2.1" ry="2.6"/><ellipse cx="305" cy="6" fill="#7f7f7f" stroke="none" rx="2.1" ry="2.6"/><ellipse cx="347" cy="6" fill="#7f7f7f" stroke="none" rx="2.1" ry="2.6"/><ellipse cx="389" cy="6" fill="#7f7f7f" stroke="none" rx="2.1" ry="2.6"/><ellipse cx="431" cy="6" fill="#7f7f7f" stroke="none" rx="2.1" ry="2.6"/><ellipse cx="473" cy="6" fill="#7f7f7f" stroke="none" rx="2.1" ry="2.6"/><ellipse cx="515" cy="6" fill="#7f7f7f" stroke="none" rx="2.1" ry="2.6"/><ellipse cx="557" cy="6" fill="#7f7f7f" stroke="none" rx="2.1" ry="2.6"/><ellipse cx="599" cy="6" fill="#7f7f7f" stroke="none" rx="2.1" ry="2.6"/></svg>