<svg xmlns="http://www.w3.org/2000/svg" width="316" height="12" version="1.1" viewBox="0 0 316 12"><path fill="#4c4c4c" stroke="none" d="M 4.5,0 A 4.5,6 0 0 0 0,6 4.5,6 0 0 0 4.5,12 l 307,0 A 4.5,6 0 0 0 316,6 4.5,6 0 0 0 311.5,0 L 4.5,0 Z"/><ellipse cx="11" cy="6" fill="#7f7f7f" stroke="none" rx="2.1" ry="2.6"/><ellipse cx="32" cy="6" fill="#7f7f7f" stroke="none" rx="2.1" ry="2.6"/><ellipse cx="53" cy="6" fill="#7f7f7f" stroke="none" rx="2.1" ry="2.6"/><ellipse cx="74" cy="6" fill="#7f7f7f" stroke="none" rx="2.1" ry="2.6"/><ellipse cx="95" cy="6" fill="#7f7f7f" stroke="none" rx="2.1" ry="2.6"/><ellipse cx="116" cy="6" fill="#7f7f7f" stroke="none" rx="2.1" ry="2.6"/><ellipse cx="137" cy="6" fill="#7f7f7f" stroke="none" rx="2.1" ry="2.6"/><ellipse cx="158" cy="6" fill="#7f7f7f" stroke="none" rx="2.1" ry="2.6"/><ellipse cx="179" cy="6" fill="#7f7f7f" stroke="none" rx="2.1" ry="2.6"/><ellipse cx="200" cy="6" fill="#7f7f7f" stroke="none" rx="2.1" ry="2.6"/><ellipse cx="221" cy="6" fill="#7f7f7f" stroke="none" rx="2.1" ry="2.6"/><ellipse cx="242" cy="6" fill="#7f7f7f" stroke="none" rx="2.1" ry="2.6"/><ellipse cx="263" cy="6" fill="#7f7f7f" stroke="none" rx="2.1" ry="2.6"/><ellipse cx="284" cy="6" fill="#7f7f7f" stroke="none" rx="2.1" ry="2.6"/><ellipse cx="305" cy="6" fill="#7f7f7f" stroke="none" rx="2.1" ry="2.6"/></svg>